<svg xmlns="http://www.w3.org/2000/svg" width="1440" height="900"><path d="M814,410L915,322L811,365Z" fill="#76a7ce" stroke="#76a7ce" stroke-width="1.51"/><path d="M814,410L933,483L915,322Z" fill="#67a1ca" stroke="#67a1ca" stroke-width="1.51"/><path d="M933,483L1032,340L915,322Z" fill="#679dc9" stroke="#679dc9" stroke-width="1.51"/><path d="M915,322L787,242L811,365Z" fill="#84add1" stroke="#84add1" stroke-width="1.51"/><path d="M998,257L890,216L915,322Z" fill="#83a9d0" stroke="#83a9d0" stroke-width="1.51"/><path d="M890,216L787,242L915,322Z" fill="#8ab0d3" stroke="#8ab0d3" stroke-width="1.51"/><path d="M811,365L690,466L814,410Z" fill="#76a8cf" stroke="#76a8cf" stroke-width="1.51"/><path d="M1032,340L998,257L915,322Z" fill="#77a1cc" stroke="#77a1cc" stroke-width="1.51"/><path d="M814,410L901,559L933,483Z" fill="#5299c6" stroke="#5299c6" stroke-width="1.51"/><path d="M933,483L1041,463L1032,340Z" fill="#5895c4" stroke="#5895c4" stroke-width="1.51"/><path d="M982,596L1041,463L933,483Z" fill="#408ebf" stroke="#408ebf" stroke-width="1.51"/><path d="M814,410L810,602L901,559Z" fill="#4f98c5" stroke="#4f98c5" stroke-width="1.51"/><path d="M653,326L690,466L811,365Z" fill="#83aed2" stroke="#83aed2" stroke-width="1.51"/><path d="M690,466L810,602L814,410Z" fill="#63a0ca" stroke="#63a0ca" stroke-width="1.51"/><path d="M787,242L653,326L811,365Z" fill="#8fb3d5" stroke="#8fb3d5" stroke-width="1.51"/><path d="M901,559L982,596L933,483Z" fill="#398ec0" stroke="#398ec0" stroke-width="1.51"/><path d="M881,675L982,596L901,559Z" fill="#2d87bc" stroke="#2d87bc" stroke-width="1.51"/><path d="M890,216L872,144L787,242Z" fill="#97b6d7" stroke="#97b6d7" stroke-width="1.51"/><path d="M787,242L674,226L653,326Z" fill="#9ebad9" stroke="#9ebad9" stroke-width="1.51"/><path d="M977,70L872,144L890,216Z" fill="#97b7d7" stroke="#97b7d7" stroke-width="1.51"/><path d="M1032,340L1114,214L998,257Z" fill="#7a9ecb" stroke="#7a9ecb" stroke-width="1.51"/><path d="M998,257L977,70L890,216Z" fill="#8fafd3" stroke="#8fafd3" stroke-width="1.51"/><path d="M1041,463L1126,346L1032,340Z" fill="#6093c4" stroke="#6093c4" stroke-width="1.51"/><path d="M1148,413L1126,346L1041,463Z" fill="#588ebf" stroke="#588ebf" stroke-width="1.51"/><path d="M690,466L674,530L810,602Z" fill="#609fc9" stroke="#609fc9" stroke-width="1.51"/><path d="M506,447L674,530L690,466Z" fill="#7babd0" stroke="#7babd0" stroke-width="1.51"/><path d="M791,89L674,226L787,242Z" fill="#a5bfdb" stroke="#a5bfdb" stroke-width="1.51"/><path d="M1151,565L1148,413L1041,463Z" fill="#4386ba" stroke="#4386ba" stroke-width="1.51"/><path d="M1126,346L1114,214L1032,340Z" fill="#7298c7" stroke="#7298c7" stroke-width="1.51"/><path d="M1234,306L1114,214L1126,346Z" fill="#7294c0" stroke="#7294c0" stroke-width="1.51"/><path d="M810,602L881,675L901,559Z" fill="#378bbe" stroke="#378bbe" stroke-width="1.51"/><path d="M773,713L881,675L810,602Z" fill="#3a87bd" stroke="#3a87bd" stroke-width="1.51"/><path d="M872,144L791,89L787,242Z" fill="#a0bcda" stroke="#a0bcda" stroke-width="1.51"/><path d="M810,9L791,89L872,144Z" fill="#a8c2de" stroke="#a8c2de" stroke-width="1.51"/><path d="M982,596L1151,565L1041,463Z" fill="#3084bb" stroke="#3084bb" stroke-width="1.51"/><path d="M1049,706L1151,565L982,596Z" fill="#1b79b5" stroke="#1b79b5" stroke-width="1.51"/><path d="M1096,102L977,70L998,257Z" fill="#90acd2" stroke="#90acd2" stroke-width="1.51"/><path d="M1148,413L1234,306L1126,346Z" fill="#638ebb" stroke="#638ebb" stroke-width="1.51"/><path d="M1151,565L1206,477L1148,413Z" fill="#4082b4" stroke="#4082b4" stroke-width="1.51"/><path d="M653,326L535,348L690,466Z" fill="#92b4d6" stroke="#92b4d6" stroke-width="1.51"/><path d="M577,191L535,348L653,326Z" fill="#a9bfdc" stroke="#a9bfdc" stroke-width="1.51"/><path d="M577,191L653,326L674,226Z" fill="#abbfdd" stroke="#abbfdd" stroke-width="1.51"/><path d="M621,679L773,713L810,602Z" fill="#4b8cc0" stroke="#4b8cc0" stroke-width="1.51"/><path d="M621,679L810,602L674,530Z" fill="#5797c5" stroke="#5797c5" stroke-width="1.51"/><path d="M1114,214L1096,102L998,257Z" fill="#87a3ce" stroke="#87a3ce" stroke-width="1.51"/><path d="M1243,217L1096,102L1114,214Z" fill="#859ec6" stroke="#859ec6" stroke-width="1.51"/><path d="M638,115L577,191L674,226Z" fill="#b6c6e0" stroke="#b6c6e0" stroke-width="1.51"/><path d="M791,89L638,115L674,226Z" fill="#b1c6e0" stroke="#b1c6e0" stroke-width="1.51"/><path d="M1206,477L1234,306L1148,413Z" fill="#5789b6" stroke="#5789b6" stroke-width="1.51"/><path d="M881,675L1049,706L982,596Z" fill="#1f7bb6" stroke="#1f7bb6" stroke-width="1.51"/><path d="M891,756L1049,706L881,675Z" fill="#1f79b0" stroke="#1f79b0" stroke-width="1.51"/><path d="M773,713L891,756L881,675Z" fill="#317fb3" stroke="#317fb3" stroke-width="1.51"/><path d="M535,348L506,447L690,466Z" fill="#8fb3d5" stroke="#8fb3d5" stroke-width="1.51"/><path d="M456,340L506,447L535,348Z" fill="#a3bcdb" stroke="#a3bcdb" stroke-width="1.51"/><path d="M791,89L696,-37L638,115Z" fill="#b9cce4" stroke="#b9cce4" stroke-width="1.51"/><path d="M896,-12L810,9L872,144Z" fill="#a6c2dd" stroke="#a6c2dd" stroke-width="1.51"/><path d="M896,-12L872,144L977,70Z" fill="#9fbcdb" stroke="#9fbcdb" stroke-width="1.51"/><path d="M1100,20L985,7L977,70Z" fill="#9cb4d7" stroke="#9cb4d7" stroke-width="1.51"/><path d="M553,646L621,679L674,530Z" fill="#649ac7" stroke="#649ac7" stroke-width="1.51"/><path d="M773,713L790,826L891,756Z" fill="#367cad" stroke="#367cad" stroke-width="1.51"/><path d="M985,7L896,-12L977,70Z" fill="#a0bbda" stroke="#a0bbda" stroke-width="1.51"/><path d="M1096,102L1100,20L977,70Z" fill="#96afd4" stroke="#96afd4" stroke-width="1.51"/><path d="M1234,306L1243,217L1114,214Z" fill="#7996be" stroke="#7996be" stroke-width="1.51"/><path d="M1151,565L1239,561L1206,477Z" fill="#2f7bae" stroke="#2f7bae" stroke-width="1.51"/><path d="M1206,477L1316,461L1234,306Z" fill="#5184b1" stroke="#5184b1" stroke-width="1.51"/><path d="M1234,306L1383,297L1243,217Z" fill="#6f8cb2" stroke="#6f8cb2" stroke-width="1.51"/><path d="M1231,663L1239,561L1151,565Z" fill="#1c73a9" stroke="#1c73a9" stroke-width="1.51"/><path d="M1120,825L1156,685L1049,706Z" fill="#0467a3" stroke="#0467a3" stroke-width="1.51"/><path d="M1049,706L1156,685L1151,565Z" fill="#0f70ad" stroke="#0f70ad" stroke-width="1.51"/><path d="M506,447L510,564L674,530Z" fill="#7daad0" stroke="#7daad0" stroke-width="1.51"/><path d="M510,564L553,646L674,530Z" fill="#6ea2cb" stroke="#6ea2cb" stroke-width="1.51"/><path d="M891,756L977,796L1049,706Z" fill="#1972a9" stroke="#1972a9" stroke-width="1.51"/><path d="M873,940L977,796L891,756Z" fill="#1e6d9b" stroke="#1e6d9b" stroke-width="1.51"/><path d="M869,-166L771,-100L896,-12Z" fill="#acc6e0" stroke="#acc6e0" stroke-width="1.51"/><path d="M1271,82L1100,20L1096,102Z" fill="#92a7cb" stroke="#92a7cb" stroke-width="1.51"/><path d="M462,226L456,340L535,348Z" fill="#b3c3de" stroke="#b3c3de" stroke-width="1.51"/><path d="M506,447L401,455L510,564Z" fill="#8eb2d5" stroke="#8eb2d5" stroke-width="1.51"/><path d="M462,226L535,348L577,191Z" fill="#b8c5e0" stroke="#b8c5e0" stroke-width="1.51"/><path d="M638,115L562,99L577,191Z" fill="#c0cde4" stroke="#c0cde4" stroke-width="1.51"/><path d="M556,-30L562,99L638,115Z" fill="#c8d3e7" stroke="#c8d3e7" stroke-width="1.51"/><path d="M1390,599L1316,461L1239,561Z" fill="#29719f" stroke="#29719f" stroke-width="1.51"/><path d="M1239,561L1316,461L1206,477Z" fill="#397cab" stroke="#397cab" stroke-width="1.51"/><path d="M562,99L462,226L577,191Z" fill="#c3cce3" stroke="#c3cce3" stroke-width="1.51"/><path d="M1156,685L1231,663L1151,565Z" fill="#126fa9" stroke="#126fa9" stroke-width="1.51"/><path d="M1200,812L1231,663L1156,685Z" fill="#04649d" stroke="#04649d" stroke-width="1.51"/><path d="M676,814L790,826L773,713Z" fill="#437fad" stroke="#437fad" stroke-width="1.51"/><path d="M676,814L773,713L621,679Z" fill="#4f87b7" stroke="#4f87b7" stroke-width="1.51"/><path d="M810,9L696,-37L791,89Z" fill="#b5cbe2" stroke="#b5cbe2" stroke-width="1.51"/><path d="M771,-100L696,-37L810,9Z" fill="#b7cde4" stroke="#b7cde4" stroke-width="1.51"/><path d="M529,833L676,814L621,679Z" fill="#5a87b3" stroke="#5a87b3" stroke-width="1.51"/><path d="M328,369L401,455L456,340Z" fill="#adc0dd" stroke="#adc0dd" stroke-width="1.51"/><path d="M456,340L401,455L506,447Z" fill="#a0bada" stroke="#a0bada" stroke-width="1.51"/><path d="M510,564L448,668L553,646Z" fill="#749fca" stroke="#749fca" stroke-width="1.51"/><path d="M553,646L529,833L621,679Z" fill="#648fbd" stroke="#648fbd" stroke-width="1.51"/><path d="M1243,217L1271,82L1096,102Z" fill="#899fc4" stroke="#899fc4" stroke-width="1.51"/><path d="M1324,129L1271,82L1243,217Z" fill="#8498ba" stroke="#8498ba" stroke-width="1.51"/><path d="M1088,-95L985,7L1100,20Z" fill="#9cb3d7" stroke="#9cb3d7" stroke-width="1.51"/><path d="M869,-166L896,-12L988,-162Z" fill="#a4c1dc" stroke="#a4c1dc" stroke-width="1.51"/><path d="M896,-12L771,-100L810,9Z" fill="#afc8e1" stroke="#afc8e1" stroke-width="1.51"/><path d="M977,796L1120,825L1049,706Z" fill="#0c68a2" stroke="#0c68a2" stroke-width="1.51"/><path d="M1037,884L1120,825L977,796Z" fill="#0b6094" stroke="#0b6094" stroke-width="1.51"/><path d="M1316,461L1383,297L1234,306Z" fill="#5d83ab" stroke="#5d83ab" stroke-width="1.51"/><path d="M1389,192L1324,129L1243,217Z" fill="#7c91b2" stroke="#7c91b2" stroke-width="1.51"/><path d="M401,455L395,562L510,564Z" fill="#8bb0d3" stroke="#8bb0d3" stroke-width="1.51"/><path d="M395,562L448,668L510,564Z" fill="#7ea6ce" stroke="#7ea6ce" stroke-width="1.51"/><path d="M1238,-42L1100,20L1271,82Z" fill="#94a7c8" stroke="#94a7c8" stroke-width="1.51"/><path d="M1238,-42L1088,-95L1100,20Z" fill="#98accf" stroke="#98accf" stroke-width="1.51"/><path d="M404,72L341,240L462,226Z" fill="#d1d3e7" stroke="#d1d3e7" stroke-width="1.51"/><path d="M696,-37L556,-30L638,115Z" fill="#c6d4e8" stroke="#c6d4e8" stroke-width="1.51"/><path d="M692,-131L556,-30L696,-37Z" fill="#c5d3e8" stroke="#c5d3e8" stroke-width="1.51"/><path d="M817,914L891,756L790,826Z" fill="#30719e" stroke="#30719e" stroke-width="1.51"/><path d="M873,940L1037,884L977,796Z" fill="#16618e" stroke="#16618e" stroke-width="1.51"/><path d="M648,888L817,914L790,826Z" fill="#3c7096" stroke="#3c7096" stroke-width="1.51"/><path d="M648,888L790,826L676,814Z" fill="#4678a0" stroke="#4678a0" stroke-width="1.51"/><path d="M1116,891L1200,812L1120,825Z" fill="#04588a" stroke="#04588a" stroke-width="1.51"/><path d="M1120,825L1200,812L1156,685Z" fill="#046199" stroke="#046199" stroke-width="1.51"/><path d="M1231,663L1390,599L1239,561Z" fill="#186c9f" stroke="#186c9f" stroke-width="1.51"/><path d="M1316,461L1461,337L1383,297Z" fill="#567a9e" stroke="#567a9e" stroke-width="1.51"/><path d="M1383,297L1389,192L1243,217Z" fill="#738aac" stroke="#738aac" stroke-width="1.51"/><path d="M771,-100L692,-131L696,-37Z" fill="#bccfe5" stroke="#bccfe5" stroke-width="1.51"/><path d="M869,-166L692,-131L771,-100Z" fill="#b5cbe3" stroke="#b5cbe3" stroke-width="1.51"/><path d="M988,-162L896,-12L985,7Z" fill="#a2bddb" stroke="#a2bddb" stroke-width="1.51"/><path d="M341,240L328,369L456,340Z" fill="#bec8e1" stroke="#bec8e1" stroke-width="1.51"/><path d="M292,469L334,578L395,562Z" fill="#94b4d5" stroke="#94b4d5" stroke-width="1.51"/><path d="M341,240L456,340L462,226Z" fill="#c1c9e2" stroke="#c1c9e2" stroke-width="1.51"/><path d="M1334,706L1390,599L1231,663Z" fill="#0b6297" stroke="#0b6297" stroke-width="1.51"/><path d="M1383,297L1434,228L1389,192Z" fill="#6f83a2" stroke="#6f83a2" stroke-width="1.51"/><path d="M552,875L648,888L676,814Z" fill="#51799e" stroke="#51799e" stroke-width="1.51"/><path d="M1088,-95L988,-162L985,7Z" fill="#9eb6d8" stroke="#9eb6d8" stroke-width="1.51"/><path d="M1352,3L1238,-42L1271,82Z" fill="#90a1be" stroke="#90a1be" stroke-width="1.51"/><path d="M1088,-95L1251,-139L988,-162Z" fill="#99afd2" stroke="#99afd2" stroke-width="1.51"/><path d="M1352,3L1271,82L1324,129Z" fill="#889ab7" stroke="#889ab7" stroke-width="1.51"/><path d="M817,914L873,940L891,756Z" fill="#286993" stroke="#286993" stroke-width="1.51"/><path d="M863,1016L873,940L817,914Z" fill="#28658c" stroke="#28658c" stroke-width="1.51"/><path d="M404,72L462,226L562,99Z" fill="#ced3e8" stroke="#ced3e8" stroke-width="1.51"/><path d="M1200,812L1334,706L1231,663Z" fill="#046097" stroke="#046097" stroke-width="1.51"/><path d="M1200,812L1348,770L1334,706Z" fill="#04598c" stroke="#04598c" stroke-width="1.51"/><path d="M1037,884L1116,891L1120,825Z" fill="#04588a" stroke="#04588a" stroke-width="1.51"/><path d="M1147,1016L1116,891L1037,884Z" fill="#035281" stroke="#035281" stroke-width="1.51"/><path d="M406,1L404,72L562,99Z" fill="#d8daeb" stroke="#d8daeb" stroke-width="1.51"/><path d="M406,1L562,99L556,-30Z" fill="#d5daeb" stroke="#d5daeb" stroke-width="1.51"/><path d="M448,668L529,833L553,646Z" fill="#6c93c0" stroke="#6c93c0" stroke-width="1.51"/><path d="M422,778L529,833L448,668Z" fill="#6f90bb" stroke="#6f90bb" stroke-width="1.51"/><path d="M1435,562L1447,471L1316,461Z" fill="#346d95" stroke="#346d95" stroke-width="1.51"/><path d="M1434,124L1352,3L1324,129Z" fill="#8493ae" stroke="#8493ae" stroke-width="1.51"/><path d="M1461,337L1434,228L1383,297Z" fill="#647d9c" stroke="#647d9c" stroke-width="1.51"/><path d="M395,562L334,578L448,668Z" fill="#85a8cf" stroke="#85a8cf" stroke-width="1.51"/><path d="M292,469L395,562L401,455Z" fill="#9ab8d8" stroke="#9ab8d8" stroke-width="1.51"/><path d="M1447,471L1461,337L1316,461Z" fill="#477398" stroke="#477398" stroke-width="1.51"/><path d="M1451,718L1435,562L1390,599Z" fill="#115b88" stroke="#115b88" stroke-width="1.51"/><path d="M1390,599L1435,562L1316,461Z" fill="#276b95" stroke="#276b95" stroke-width="1.51"/><path d="M770,1053L863,1016L817,914Z" fill="#2e678e" stroke="#2e678e" stroke-width="1.51"/><path d="M529,833L552,875L676,814Z" fill="#587fa4" stroke="#587fa4" stroke-width="1.51"/><path d="M411,873L552,875L529,833Z" fill="#6280a2" stroke="#6280a2" stroke-width="1.51"/><path d="M165,431L292,469L328,369Z" fill="#b1c5e0" stroke="#b1c5e0" stroke-width="1.51"/><path d="M328,369L292,469L401,455Z" fill="#aabfdc" stroke="#aabfdc" stroke-width="1.51"/><path d="M315,707L422,778L448,668Z" fill="#7b99c3" stroke="#7b99c3" stroke-width="1.51"/><path d="M1238,-42L1251,-139L1088,-95Z" fill="#95a9ca" stroke="#95a9ca" stroke-width="1.51"/><path d="M1434,124L1324,129L1389,192Z" fill="#7c8da9" stroke="#7c8da9" stroke-width="1.51"/><path d="M1334,706L1451,718L1390,599Z" fill="#04588a" stroke="#04588a" stroke-width="1.51"/><path d="M1269,925L1348,770L1200,812Z" fill="#03517f" stroke="#03517f" stroke-width="1.51"/><path d="M404,72L284,129L341,240Z" fill="#dbd9ea" stroke="#dbd9ea" stroke-width="1.51"/><path d="M416,-110L406,1L556,-30Z" fill="#dcdeed" stroke="#dcdeed" stroke-width="1.51"/><path d="M1573,139L1434,124L1434,228Z" fill="#7686a0" stroke="#7686a0" stroke-width="1.51"/><path d="M1434,228L1434,124L1389,192Z" fill="#7686a2" stroke="#7686a2" stroke-width="1.51"/><path d="M692,-131L519,-136L556,-30Z" fill="#cdd7ea" stroke="#cdd7ea" stroke-width="1.51"/><path d="M869,-166L519,-136L692,-131Z" fill="#bfd1e6" stroke="#bfd1e6" stroke-width="1.51"/><path d="M873,940L1007,1048L1037,884Z" fill="#145c87" stroke="#145c87" stroke-width="1.51"/><path d="M674,1027L817,914L648,888Z" fill="#406e91" stroke="#406e91" stroke-width="1.51"/><path d="M1321,-92L1251,-139L1238,-42Z" fill="#92a4c2" stroke="#92a4c2" stroke-width="1.51"/><path d="M322,-8L284,129L404,72Z" fill="#e4e1ef" stroke="#e4e1ef" stroke-width="1.51"/><path d="M341,240L218,295L328,369Z" fill="#c7cee5" stroke="#c7cee5" stroke-width="1.51"/><path d="M322,-8L404,72L406,1Z" fill="#e3e1ef" stroke="#e3e1ef" stroke-width="1.51"/><path d="M1352,3L1321,-92L1238,-42Z" fill="#8fa0bc" stroke="#8fa0bc" stroke-width="1.51"/><path d="M1490,-112L1321,-92L1352,3Z" fill="#8997af" stroke="#8997af" stroke-width="1.51"/><path d="M516,1061L674,1027L552,875Z" fill="#547596" stroke="#547596" stroke-width="1.51"/><path d="M334,578L315,707L448,668Z" fill="#84a2cd" stroke="#84a2cd" stroke-width="1.51"/><path d="M240,711L315,707L334,578Z" fill="#88a4ce" stroke="#88a4ce" stroke-width="1.51"/><path d="M1348,770L1451,718L1334,706Z" fill="#045484" stroke="#045484" stroke-width="1.51"/><path d="M1435,562L1568,470L1447,471Z" fill="#31698e" stroke="#31698e" stroke-width="1.51"/><path d="M1447,471L1568,470L1461,337Z" fill="#457093" stroke="#457093" stroke-width="1.51"/><path d="M1503,825L1451,718L1348,770Z" fill="#034b75" stroke="#034b75" stroke-width="1.51"/><path d="M191,215L218,295L341,240Z" fill="#d4d5e9" stroke="#d4d5e9" stroke-width="1.51"/><path d="M292,469L173,554L334,578Z" fill="#9bb8d8" stroke="#9bb8d8" stroke-width="1.51"/><path d="M1116,891L1269,925L1200,812Z" fill="#03507d" stroke="#03507d" stroke-width="1.51"/><path d="M1147,1016L1269,925L1116,891Z" fill="#034d7a" stroke="#034d7a" stroke-width="1.51"/><path d="M552,875L674,1027L648,888Z" fill="#4d7394" stroke="#4d7394" stroke-width="1.51"/><path d="M411,873L529,833L422,778Z" fill="#6b87ab" stroke="#6b87ab" stroke-width="1.51"/><path d="M519,-136L416,-110L556,-30Z" fill="#d8dced" stroke="#d8dced" stroke-width="1.51"/><path d="M770,1053L1007,1048L863,1016Z" fill="#21648b" stroke="#21648b" stroke-width="1.51"/><path d="M863,1016L1007,1048L873,940Z" fill="#1b618a" stroke="#1b618a" stroke-width="1.51"/><path d="M280,796L411,873L422,778Z" fill="#768eb1" stroke="#768eb1" stroke-width="1.51"/><path d="M674,1027L770,1053L817,914Z" fill="#396b90" stroke="#396b90" stroke-width="1.51"/><path d="M331,-108L322,-8L406,1Z" fill="#e8e4f0" stroke="#e8e4f0" stroke-width="1.51"/><path d="M284,129L191,215L341,240Z" fill="#dbd9ea" stroke="#dbd9ea" stroke-width="1.51"/><path d="M1007,1048L1147,1016L1037,884Z" fill="#065583" stroke="#065583" stroke-width="1.51"/><path d="M1603,606L1568,470L1435,562Z" fill="#23648b" stroke="#23648b" stroke-width="1.51"/><path d="M1461,337L1569,227L1434,228Z" fill="#687d9a" stroke="#687d9a" stroke-width="1.51"/><path d="M1622,367L1569,227L1461,337Z" fill="#5f7998" stroke="#5f7998" stroke-width="1.51"/><path d="M1434,124L1501,12L1352,3Z" fill="#828fa6" stroke="#828fa6" stroke-width="1.51"/><path d="M218,295L165,431L328,369Z" fill="#bfcce3" stroke="#bfcce3" stroke-width="1.51"/><path d="M192,76L191,215L284,129Z" fill="#e5e2ef" stroke="#e5e2ef" stroke-width="1.51"/><path d="M59,353L165,431L218,295Z" fill="#c7d1e7" stroke="#c7d1e7" stroke-width="1.51"/><path d="M315,707L280,796L422,778Z" fill="#7e97be" stroke="#7e97be" stroke-width="1.51"/><path d="M173,554L240,711L334,578Z" fill="#91afd3" stroke="#91afd3" stroke-width="1.51"/><path d="M1367,1015L1269,989L1147,1016Z" fill="#034972" stroke="#034972" stroke-width="1.51"/><path d="M1147,1016L1269,989L1269,925Z" fill="#034b75" stroke="#034b75" stroke-width="1.51"/><path d="M1269,925L1391,916L1348,770Z" fill="#02466e" stroke="#02466e" stroke-width="1.51"/><path d="M1573,139L1501,12L1434,124Z" fill="#7e8ca3" stroke="#7e8ca3" stroke-width="1.51"/><path d="M1321,-92L1490,-112L1251,-139Z" fill="#8c9bb4" stroke="#8c9bb4" stroke-width="1.51"/><path d="M165,431L173,554L292,469Z" fill="#a9c2dd" stroke="#a9c2dd" stroke-width="1.51"/><path d="M240,711L280,796L315,707Z" fill="#859dc3" stroke="#859dc3" stroke-width="1.51"/><path d="M1569,227L1573,139L1434,228Z" fill="#72829e" stroke="#72829e" stroke-width="1.51"/><path d="M1694,201L1573,139L1569,227Z" fill="#73839e" stroke="#73839e" stroke-width="1.51"/><path d="M322,-8L192,76L284,129Z" fill="#e9e5f1" stroke="#e9e5f1" stroke-width="1.51"/><path d="M416,-110L331,-108L406,1Z" fill="#e4e2f0" stroke="#e4e2f0" stroke-width="1.51"/><path d="M208,-156L331,-108L416,-110Z" fill="#eae6f2" stroke="#eae6f2" stroke-width="1.51"/><path d="M1451,718L1603,606L1435,562Z" fill="#105986" stroke="#105986" stroke-width="1.51"/><path d="M1367,1015L1391,916L1269,925Z" fill="#024166" stroke="#024166" stroke-width="1.51"/><path d="M1681,354L1622,367L1684,481Z" fill="#4b7294" stroke="#4b7294" stroke-width="1.51"/><path d="M1568,470L1622,367L1461,337Z" fill="#4d7294" stroke="#4d7294" stroke-width="1.51"/><path d="M1391,916L1428,893L1348,770Z" fill="#034268" stroke="#034268" stroke-width="1.51"/><path d="M184,-40L192,76L322,-8Z" fill="#f0ebf4" stroke="#f0ebf4" stroke-width="1.51"/><path d="M191,215L127,237L218,295Z" fill="#dadaeb" stroke="#dadaeb" stroke-width="1.51"/><path d="M1597,714L1603,606L1451,718Z" fill="#035382" stroke="#035382" stroke-width="1.51"/><path d="M218,886L309,886L280,796Z" fill="#7a8daa" stroke="#7a8daa" stroke-width="1.51"/><path d="M280,796L309,886L411,873Z" fill="#7689a9" stroke="#7689a9" stroke-width="1.51"/><path d="M446,1020L516,1061L552,875Z" fill="#5e7998" stroke="#5e7998" stroke-width="1.51"/><path d="M206,799L280,796L240,711Z" fill="#859cc0" stroke="#859cc0" stroke-width="1.51"/><path d="M1428,893L1503,825L1348,770Z" fill="#02436a" stroke="#02436a" stroke-width="1.51"/><path d="M46,129L127,237L191,215Z" fill="#e5e1ef" stroke="#e5e1ef" stroke-width="1.51"/><path d="M165,431L114,536L173,554Z" fill="#a8c2dd" stroke="#a8c2dd" stroke-width="1.51"/><path d="M674,1027L516,1061L770,1053Z" fill="#497193" stroke="#497193" stroke-width="1.51"/><path d="M770,1053L1574,1062L1007,1048Z" fill="#03517f" stroke="#03517f" stroke-width="1.51"/><path d="M446,1020L552,875L411,873Z" fill="#627b99" stroke="#627b99" stroke-width="1.51"/><path d="M340,987L446,1020L411,873Z" fill="#6a7e9b" stroke="#6a7e9b" stroke-width="1.51"/><path d="M173,554L82,655L240,711Z" fill="#95afd4" stroke="#95afd4" stroke-width="1.51"/><path d="M73,476L114,536L165,431Z" fill="#b0c7e0" stroke="#b0c7e0" stroke-width="1.51"/><path d="M1501,12L1490,-112L1352,3Z" fill="#8591a6" stroke="#8591a6" stroke-width="1.51"/><path d="M1586,-108L1490,-112L1501,12Z" fill="#8591a6" stroke="#8591a6" stroke-width="1.51"/><path d="M1503,825L1597,714L1451,718Z" fill="#034c77" stroke="#034c77" stroke-width="1.51"/><path d="M1684,481L1622,367L1568,470Z" fill="#426f92" stroke="#426f92" stroke-width="1.51"/><path d="M309,886L340,987L411,873Z" fill="#6f819c" stroke="#6f819c" stroke-width="1.51"/><path d="M82,783L206,799L240,711Z" fill="#8ba0c2" stroke="#8ba0c2" stroke-width="1.51"/><path d="M1503,825L1598,785L1597,714Z" fill="#034a74" stroke="#034a74" stroke-width="1.51"/><path d="M1615,924L1598,785L1503,825Z" fill="#024065" stroke="#024065" stroke-width="1.51"/><path d="M1391,916L1490,994L1428,893Z" fill="#023858" stroke="#023858" stroke-width="1.51"/><path d="M1269,989L1367,1015L1269,925Z" fill="#03456c" stroke="#03456c" stroke-width="1.51"/><path d="M1007,1048L1367,1015L1147,1016Z" fill="#034d7a" stroke="#034d7a" stroke-width="1.51"/><path d="M1573,139L1619,-6L1501,12Z" fill="#828ea4" stroke="#828ea4" stroke-width="1.51"/><path d="M1622,367L1681,354L1569,227Z" fill="#5e7998" stroke="#5e7998" stroke-width="1.51"/><path d="M1684,481L1568,470L1683,576Z" fill="#2f688e" stroke="#2f688e" stroke-width="1.51"/><path d="M218,886L340,987L309,886Z" fill="#74849f" stroke="#74849f" stroke-width="1.51"/><path d="M446,1020L112,1061L516,1061Z" fill="#6f809c" stroke="#6f809c" stroke-width="1.51"/><path d="M1683,576L1568,470L1603,606Z" fill="#21648b" stroke="#21648b" stroke-width="1.51"/><path d="M114,536L82,655L173,554Z" fill="#9dbad9" stroke="#9dbad9" stroke-width="1.51"/><path d="M59,353L73,476L165,431Z" fill="#bdcee4" stroke="#bdcee4" stroke-width="1.51"/><path d="M192,76L46,129L191,215Z" fill="#eae6f1" stroke="#eae6f1" stroke-width="1.51"/><path d="M127,237L59,353L218,295Z" fill="#d4d8ea" stroke="#d4d8ea" stroke-width="1.51"/><path d="M331,-108L184,-40L322,-8Z" fill="#eee9f3" stroke="#eee9f3" stroke-width="1.51"/><path d="M-38,243L59,353L127,237Z" fill="#dcdded" stroke="#dcdded" stroke-width="1.51"/><path d="M1679,690L1683,576L1603,606Z" fill="#115a86" stroke="#115a86" stroke-width="1.51"/><path d="M1490,994L1503,825L1428,893Z" fill="#023858" stroke="#023858" stroke-width="1.51"/><path d="M1679,690L1603,606L1597,714Z" fill="#055483" stroke="#055483" stroke-width="1.51"/><path d="M206,799L218,886L280,796Z" fill="#8093b3" stroke="#8093b3" stroke-width="1.51"/><path d="M122,904L218,886L206,799Z" fill="#8190ab" stroke="#8190ab" stroke-width="1.51"/><path d="M1681,354L1694,201L1569,227Z" fill="#687d9b" stroke="#687d9b" stroke-width="1.51"/><path d="M1726,104L1694,201L1681,354Z" fill="#6f819d" stroke="#6f819d" stroke-width="1.51"/><path d="M1726,104L1681,354L1684,481Z" fill="#5e7998" stroke="#5e7998" stroke-width="1.51"/><path d="M1726,104L1619,-6L1573,139Z" fill="#7f8ca3" stroke="#7f8ca3" stroke-width="1.51"/><path d="M0,526L82,655L114,536Z" fill="#a1bedc" stroke="#a1bedc" stroke-width="1.51"/><path d="M0,526L114,536L73,476Z" fill="#acc5e0" stroke="#acc5e0" stroke-width="1.51"/><path d="M1682,760L1679,690L1597,714Z" fill="#034f7c" stroke="#034f7c" stroke-width="1.51"/><path d="M1619,-6L1586,-108L1501,12Z" fill="#8591a6" stroke="#8591a6" stroke-width="1.51"/><path d="M1490,-112L1586,-108L1251,-139Z" fill="#8591a6" stroke="#8591a6" stroke-width="1.51"/><path d="M1709,-107L1586,-108L1619,-6Z" fill="#8591a6" stroke="#8591a6" stroke-width="1.51"/><path d="M59,28L46,129L192,76Z" fill="#f4edf6" stroke="#f4edf6" stroke-width="1.51"/><path d="M331,-108L208,-156L184,-40Z" fill="#f1ebf4" stroke="#f1ebf4" stroke-width="1.51"/><path d="M519,-136L208,-156L416,-110Z" fill="#e5e3f0" stroke="#e5e3f0" stroke-width="1.51"/><path d="M869,-166L208,-156L519,-136Z" fill="#d4daeb" stroke="#d4daeb" stroke-width="1.51"/><path d="M1598,785L1682,760L1597,714Z" fill="#034c77" stroke="#034c77" stroke-width="1.51"/><path d="M1367,1015L1490,994L1391,916Z" fill="#023a5b" stroke="#023a5b" stroke-width="1.51"/><path d="M59,28L192,76L184,-40Z" fill="#f5eff7" stroke="#f5eff7" stroke-width="1.51"/><path d="M1615,924L1682,760L1598,785Z" fill="#02436a" stroke="#02436a" stroke-width="1.51"/><path d="M1679,690L1734,925L1683,576Z" fill="#034e7b" stroke="#034e7b" stroke-width="1.51"/><path d="M1734,925L1726,104L1684,481Z" fill="#31688e" stroke="#31688e" stroke-width="1.51"/><path d="M-54,346L-8,409L59,353Z" fill="#cdd7ea" stroke="#cdd7ea" stroke-width="1.51"/><path d="M59,353L-8,409L73,476Z" fill="#c1d1e6" stroke="#c1d1e6" stroke-width="1.51"/><path d="M-8,409L0,526L73,476Z" fill="#b7cce3" stroke="#b7cce3" stroke-width="1.51"/><path d="M82,655L82,783L240,711Z" fill="#90a7cb" stroke="#90a7cb" stroke-width="1.51"/><path d="M1694,201L1726,104L1573,139Z" fill="#7887a0" stroke="#7887a0" stroke-width="1.51"/><path d="M1734,925L1684,481L1683,576Z" fill="#085584" stroke="#085584" stroke-width="1.51"/><path d="M218,886L179,1016L340,987Z" fill="#7887a0" stroke="#7887a0" stroke-width="1.51"/><path d="M-9,640L82,783L82,655Z" fill="#97acd1" stroke="#97acd1" stroke-width="1.51"/><path d="M-2,-33L59,28L54,-149Z" fill="#fdf5fa" stroke="#fdf5fa" stroke-width="1.51"/><path d="M46,129L-38,243L127,237Z" fill="#e7e4f0" stroke="#e7e4f0" stroke-width="1.51"/><path d="M1490,994L1615,924L1503,825Z" fill="#023858" stroke="#023858" stroke-width="1.51"/><path d="M82,783L122,904L206,799Z" fill="#8798b5" stroke="#8798b5" stroke-width="1.51"/><path d="M340,987L179,1016L446,1020Z" fill="#72829e" stroke="#72829e" stroke-width="1.51"/><path d="M0,526L-9,640L82,655Z" fill="#a0bada" stroke="#a0bada" stroke-width="1.51"/><path d="M82,783L-30,910L122,904Z" fill="#8795ae" stroke="#8795ae" stroke-width="1.51"/><path d="M-159,536L-9,640L0,526Z" fill="#a5c2dd" stroke="#a5c2dd" stroke-width="1.51"/><path d="M-23,131L-38,243L46,129Z" fill="#eee9f3" stroke="#eee9f3" stroke-width="1.51"/><path d="M-8,409L-119,428L0,526Z" fill="#bbcfe4" stroke="#bbcfe4" stroke-width="1.51"/><path d="M-38,243L-54,346L59,353Z" fill="#d7dcec" stroke="#d7dcec" stroke-width="1.51"/><path d="M-134,320L-119,428L-54,346Z" fill="#ced7e9" stroke="#ced7e9" stroke-width="1.51"/><path d="M59,28L-23,131L46,129Z" fill="#f5eff6" stroke="#f5eff6" stroke-width="1.51"/><path d="M122,904L179,1016L218,886Z" fill="#7d8ba2" stroke="#7d8ba2" stroke-width="1.51"/><path d="M1734,925L1735,-21L1726,104Z" fill="#5a7797" stroke="#5a7797" stroke-width="1.51"/><path d="M1726,104L1735,-21L1619,-6Z" fill="#8490a5" stroke="#8490a5" stroke-width="1.51"/><path d="M1735,-21L1709,-107L1619,-6Z" fill="#8591a6" stroke="#8591a6" stroke-width="1.51"/><path d="M1586,-108L1709,-107L1251,-139Z" fill="#8591a6" stroke="#8591a6" stroke-width="1.51"/><path d="M1251,-139L1709,-107L988,-162Z" fill="#8e9fba" stroke="#8e9fba" stroke-width="1.51"/><path d="M516,1061L1574,1062L770,1053Z" fill="#175e88" stroke="#175e88" stroke-width="1.51"/><path d="M1007,1048L1574,1062L1367,1015Z" fill="#02436a" stroke="#02436a" stroke-width="1.51"/><path d="M1367,1015L1574,1062L1490,994Z" fill="#023858" stroke="#023858" stroke-width="1.51"/><path d="M1490,994L1574,1062L1615,924Z" fill="#023858" stroke="#023858" stroke-width="1.51"/><path d="M1615,924L1734,925L1682,760Z" fill="#023c5f" stroke="#023c5f" stroke-width="1.51"/><path d="M59,28L-2,-33L-23,131Z" fill="#fbf3f9" stroke="#fbf3f9" stroke-width="1.51"/><path d="M-134,320L-54,346L-38,243Z" fill="#d9ddec" stroke="#d9ddec" stroke-width="1.51"/><path d="M54,-149L59,28L184,-40Z" fill="#faf2f8" stroke="#faf2f8" stroke-width="1.51"/><path d="M208,-156L54,-149L184,-40Z" fill="#f7f0f7" stroke="#f7f0f7" stroke-width="1.51"/><path d="M-134,320L-38,243L-125,183Z" fill="#e3e2ef" stroke="#e3e2ef" stroke-width="1.51"/><path d="M-54,346L-119,428L-8,409Z" fill="#c8d4e8" stroke="#c8d4e8" stroke-width="1.51"/><path d="M-9,640L-66,760L82,783Z" fill="#97abcd" stroke="#97abcd" stroke-width="1.51"/><path d="M1740,1016L1734,925L1615,924Z" fill="#023858" stroke="#023858" stroke-width="1.51"/><path d="M1682,760L1734,925L1679,690Z" fill="#034871" stroke="#034871" stroke-width="1.51"/><path d="M-125,183L-38,243L-23,131Z" fill="#ece8f2" stroke="#ece8f2" stroke-width="1.51"/><path d="M-183,648L-66,760L-9,640Z" fill="#9ab0d5" stroke="#9ab0d5" stroke-width="1.51"/><path d="M122,904L112,1061L179,1016Z" fill="#7e8ca3" stroke="#7e8ca3" stroke-width="1.51"/><path d="M-120,95L-125,183L-23,131Z" fill="#f2ecf5" stroke="#f2ecf5" stroke-width="1.51"/><path d="M54,-149L-9,-122L-2,-33Z" fill="#fef6fa" stroke="#fef6fa" stroke-width="1.51"/><path d="M-30,910L112,1061L122,904Z" fill="#828fa5" stroke="#828fa5" stroke-width="1.51"/><path d="M179,1016L112,1061L446,1020Z" fill="#7887a0" stroke="#7887a0" stroke-width="1.51"/><path d="M516,1061L112,1061L1574,1062Z" fill="#3d6d91" stroke="#3d6d91" stroke-width="1.51"/><path d="M-120,95L-23,131L-2,-33Z" fill="#f9f2f8" stroke="#f9f2f8" stroke-width="1.51"/><path d="M-183,648L-159,536L-167,-111Z" fill="#cfd8ea" stroke="#cfd8ea" stroke-width="1.51"/><path d="M-144,-15L-120,95L-2,-33Z" fill="#fef6fb" stroke="#fef6fb" stroke-width="1.51"/><path d="M-159,536L-134,320L-167,-111Z" fill="#e3e2ef" stroke="#e3e2ef" stroke-width="1.51"/><path d="M-134,320L-159,536L-119,428Z" fill="#c0d1e6" stroke="#c0d1e6" stroke-width="1.51"/><path d="M-119,428L-159,536L0,526Z" fill="#b3cae2" stroke="#b3cae2" stroke-width="1.51"/><path d="M-170,768L-30,910L-66,760Z" fill="#90a0bd" stroke="#90a0bd" stroke-width="1.51"/><path d="M-66,760L-30,910L82,783Z" fill="#8fa0bb" stroke="#8fa0bb" stroke-width="1.51"/><path d="M1574,1062L1740,1016L1615,924Z" fill="#023858" stroke="#023858" stroke-width="1.51"/><path d="M1734,925L1740,1016L1735,-21Z" fill="#0e5885" stroke="#0e5885" stroke-width="1.51"/><path d="M-159,536L-183,648L-9,640Z" fill="#a1bbdb" stroke="#a1bbdb" stroke-width="1.51"/><path d="M-144,-15L-134,320L-125,183Z" fill="#efeaf4" stroke="#efeaf4" stroke-width="1.51"/><path d="M-120,95L-144,-15L-125,183Z" fill="#f7f1f7" stroke="#f7f1f7" stroke-width="1.51"/><path d="M-9,-122L-144,-15L-2,-33Z" fill="#fff7fb" stroke="#fff7fb" stroke-width="1.51"/><path d="M-183,648L-170,768L-66,760Z" fill="#97abcd" stroke="#97abcd" stroke-width="1.51"/><path d="M-30,910L-63,1040L112,1061Z" fill="#8591a6" stroke="#8591a6" stroke-width="1.51"/><path d="M-152,943L-63,1040L-30,910Z" fill="#8591a6" stroke="#8591a6" stroke-width="1.51"/><path d="M-9,-122L-167,-111L-144,-15Z" fill="#fff7fb" stroke="#fff7fb" stroke-width="1.51"/><path d="M-144,-15L-167,-111L-134,320Z" fill="#f9f2f8" stroke="#f9f2f8" stroke-width="1.51"/><path d="M54,-149L-167,-111L-9,-122Z" fill="#fff7fb" stroke="#fff7fb" stroke-width="1.51"/><path d="M-164,1006L-152,943L-170,768Z" fill="#8591a6" stroke="#8591a6" stroke-width="1.51"/><path d="M-170,768L-152,943L-30,910Z" fill="#8896ad" stroke="#8896ad" stroke-width="1.51"/><path d="M-152,943L-164,1006L-63,1040Z" fill="#8591a6" stroke="#8591a6" stroke-width="1.51"/><path d="M-183,648L-164,1006L-170,768Z" fill="#90a1be" stroke="#90a1be" stroke-width="1.51"/></svg>